<?xml version="1.0"?>
<!-- Converted with SVG Converter - Version 0.9.5 (Compiled Mon May 30 09:08:51 2011) - Copyright (C) 2011 Nokia -->
<svg xmlns="http://www.w3.org/2000/svg" width="96px" x="0px" version="1.1" y="0px" height="96px" viewBox="0 0 96 96" xmlns:xlink="http://www.w3.org/1999/xlink" baseProfile="tiny" xml:space="preserve">
 <g id="DO_NOT_EDIT_-_BOUNDING_BOX">
  <rect width="96" fill="none" height="96" id="BOUNDING_BOX"/>
 </g>
 <g id="DO_NOT_EDIT_-_SHADOW">
  <path stroke-opacity="0.4" fill-opacity="0.4" id="SHADOW" d="M88.023,49c0,29.633-10.364,40-40,40c-29.635,0-40-10.367-40-40c0-29.634,10.366-40,40-40&#xd;&#xa;&#x9;&#x9;C77.659,9,88.023,19.365,88.023,49z"/>
 </g>
 <g id="GRAY_BACKGROUNDS">
  <g id="GRAY5">
   <linearGradient id="GRAY_5_1_" y1="8.0107" x1="47.9995" y2="87.9897" gradientUnits="userSpaceOnUse" x2="47.9995">
    <stop offset="0.0364" style="stop-color:#DDDDDD"/>
    <stop offset="0.4616" style="stop-color:#BFBFC1"/>
    <stop offset="1" style="stop-color:#949499"/>
   </linearGradient>
   <path fill="url(#GRAY_5_1_)" fill-rule="evenodd" id="GRAY_5" d="M8,47.989c0,29.633,10.365,40,40,40&#xd;&#xa;&#x9;&#x9;&#x9;c29.637,0,40-10.367,40-40c0-28.985-9.926-39.53-38.091-39.979h-3.817C17.928,8.459,8,19.004,8,47.989z"/>
   <linearGradient id="HIGHLIGHT_GRA5_1_" y1="8" x1="47.9995" y2="88.0005" gradientUnits="userSpaceOnUse" x2="47.9995">
    <stop offset="0.0364" style="stop-color:#FFFFFF"/>
    <stop offset="0.3366" style="stop-color:#E1E1E3"/>
    <stop offset="0.9874" style="stop-color:#96969A"/>
    <stop offset="1" style="stop-color:#949499"/>
   </linearGradient>
   <path stroke-opacity="0.25" fill="url(#HIGHLIGHT_GRA5_1_)" fill-opacity="0.25" id="HIGHLIGHT_GRA5" d="M48,8C18.365,8,8,18.365,8,48&#xd;&#xa;&#x9;&#x9;&#x9;c0,29.633,10.365,40,40,40c29.637,0,40-10.367,40-40C88,18.365,77.637,8,48,8z M48,87.023C18.842,87.023,9,77.176,9,48&#xd;&#xa;&#x9;&#x9;&#x9;S18.842,8.977,48,8.977S87,18.824,87,48S77.158,87.023,48,87.023z"/>
  </g>
  <g display="none" id="GRAY4">
   <linearGradient id="GRAY_4_1_" y1="8.0107" x1="47.9995" y2="87.9897" gradientUnits="userSpaceOnUse" x2="47.9995">
    <stop offset="0.0364" style="stop-color:#E0E0E0"/>
    <stop offset="0.3262" style="stop-color:#D6D6D6"/>
    <stop offset="0.8148" style="stop-color:#BCBCBC"/>
    <stop offset="1" style="stop-color:#B0B0B0"/>
   </linearGradient>
   <path fill="url(#GRAY_4_1_)" display="inline" fill-rule="evenodd" id="GRAY_4" d="M8,47.989&#xd;&#xa;&#x9;&#x9;&#x9;c0,29.633,10.365,40,40,40c29.637,0,40-10.367,40-40c0-28.985-9.926-39.53-38.091-39.979h-3.817C17.928,8.459,8,19.004,8,47.989z"/>
   <linearGradient id="HIGHLIGHT_GRA4_2_" y1="8" x1="47.9995" y2="88.0005" gradientUnits="userSpaceOnUse" x2="47.9995">
    <stop offset="0.0364" style="stop-color:#E8E8E8"/>
    <stop offset="0.2978" style="stop-color:#DEDEDE"/>
    <stop offset="0.7385" style="stop-color:#C4C4C4"/>
    <stop offset="1" style="stop-color:#B1B1B1"/>
   </linearGradient>
   <path fill="url(#HIGHLIGHT_GRA4_2_)" display="inline" id="HIGHLIGHT_GRA4_1_" d="M48,8C18.365,8,8,18.365,8,48&#xd;&#xa;&#x9;&#x9;&#x9;c0,29.633,10.365,40,40,40c29.637,0,40-10.367,40-40C88,18.365,77.637,8,48,8z M48,87.023C18.842,87.023,9,77.176,9,48&#xd;&#xa;&#x9;&#x9;&#x9;S18.842,8.977,48,8.977S87,18.824,87,48S77.158,87.023,48,87.023z"/>
  </g>
  <g display="none" id="GRAY3">
   <linearGradient id="GRAY_3_1_" y1="8.0107" x1="47.9995" y2="87.9897" gradientUnits="userSpaceOnUse" x2="47.9995">
    <stop offset="0.0364" style="stop-color:#E9E9E9"/>
    <stop offset="0.3218" style="stop-color:#DFDFDF"/>
    <stop offset="0.8028" style="stop-color:#C5C5C5"/>
    <stop offset="1" style="stop-color:#B8B8B8"/>
   </linearGradient>
   <path fill="url(#GRAY_3_1_)" display="inline" fill-rule="evenodd" id="GRAY_3" d="M8,47.989&#xd;&#xa;&#x9;&#x9;&#x9;c0,29.633,10.365,40,40,40c29.637,0,40-10.367,40-40c0-28.985-9.926-39.53-38.091-39.979h-3.817C17.928,8.459,8,19.004,8,47.989z"/>
   <linearGradient id="HIGHLIGHT_GRA3_2_" y1="8" x1="47.9995" y2="88.0005" gradientUnits="userSpaceOnUse" x2="47.9995">
    <stop offset="0.0364" style="stop-color:#EFEFEF"/>
    <stop offset="0.3133" style="stop-color:#E5E5E5"/>
    <stop offset="0.7799" style="stop-color:#CBCBCB"/>
    <stop offset="1" style="stop-color:#BCBCBC"/>
   </linearGradient>
   <path fill="url(#HIGHLIGHT_GRA3_2_)" display="inline" id="HIGHLIGHT_GRA3_1_" d="M48,8C18.365,8,8,18.365,8,48&#xd;&#xa;&#x9;&#x9;&#x9;c0,29.633,10.365,40,40,40c29.637,0,40-10.367,40-40C88,18.365,77.637,8,48,8z M48,87.023C18.842,87.023,9,77.176,9,48&#xd;&#xa;&#x9;&#x9;&#x9;S18.842,8.977,48,8.977S87,18.824,87,48S77.158,87.023,48,87.023z"/>
  </g>
  <g display="none" id="GRAY2">
   <linearGradient id="GRAY_2_1_" y1="8.0107" x1="47.9995" y2="87.9897" gradientUnits="userSpaceOnUse" x2="47.9995">
    <stop offset="0.0364" style="stop-color:#EEEEEE"/>
    <stop offset="0.3262" style="stop-color:#E4E4E4"/>
    <stop offset="0.8148" style="stop-color:#CACACA"/>
    <stop offset="1" style="stop-color:#BEBEBE"/>
   </linearGradient>
   <path fill="url(#GRAY_2_1_)" display="inline" fill-rule="evenodd" id="GRAY_2" d="M8,47.989&#xd;&#xa;&#x9;&#x9;&#x9;c0,29.633,10.365,40,40,40c29.637,0,40-10.367,40-40c0-28.985-9.926-39.53-38.091-39.979h-3.817C17.928,8.459,8,19.004,8,47.989z"/>
   <linearGradient id="HIGHLIGHT_GRA2_1_" y1="8" x1="47.9995" y2="88.0005" gradientUnits="userSpaceOnUse" x2="47.9995">
    <stop offset="0.0364" style="stop-color:#F2F2F2"/>
    <stop offset="0.3133" style="stop-color:#E8E8E8"/>
    <stop offset="0.7799" style="stop-color:#CECECE"/>
    <stop offset="1" style="stop-color:#BFBFBF"/>
   </linearGradient>
   <path fill="url(#HIGHLIGHT_GRA2_1_)" display="inline" id="HIGHLIGHT_GRA2" d="M48,8C18.365,8,8,18.365,8,48&#xd;&#xa;&#x9;&#x9;&#x9;c0,29.633,10.365,40,40,40c29.637,0,40-10.367,40-40C88,18.365,77.637,8,48,8z M48,87.023C18.842,87.023,9,77.176,9,48&#xd;&#xa;&#x9;&#x9;&#x9;S18.842,8.977,48,8.977S87,18.824,87,48S77.158,87.023,48,87.023z"/>
  </g>
  <g display="none" id="GRAY1">
   <linearGradient id="GRAY_1_1_" y1="8.0107" x1="47.9995" y2="87.9897" gradientUnits="userSpaceOnUse" x2="47.9995">
    <stop offset="0.0364" style="stop-color:#F9F9F9"/>
    <stop offset="0.2102" style="stop-color:#EFEFEF"/>
    <stop offset="0.5042" style="stop-color:#D6D6D5"/>
    <stop offset="0.8303" style="stop-color:#B2B2B0"/>
    <stop offset="1" style="stop-color:#ABABA8"/>
   </linearGradient>
   <path fill="url(#GRAY_1_1_)" display="inline" fill-rule="evenodd" id="GRAY_1" d="M8,47.989&#xd;&#xa;&#x9;&#x9;&#x9;c0,29.633,10.365,40,40,40c29.637,0,40-10.367,40-40c0-28.985-9.926-39.53-38.091-39.979h-3.817C17.928,8.459,8,19.004,8,47.989z"/>
   <linearGradient id="HIGHLIGHT_GRA1_1_" y1="8" x1="47.9995" y2="88.0005" gradientUnits="userSpaceOnUse" x2="47.9995">
    <stop offset="0.0364" style="stop-color:#FCFCFC"/>
    <stop offset="0.2262" style="stop-color:#F3F3F2"/>
    <stop offset="0.5471" style="stop-color:#DAD9D8"/>
    <stop offset="0.9576" style="stop-color:#B2B0AD"/>
    <stop offset="1" style="stop-color:#ADABA8"/>
   </linearGradient>
   <path fill="url(#HIGHLIGHT_GRA1_1_)" display="inline" id="HIGHLIGHT_GRA1" d="M48,8C18.365,8,8,18.365,8,48&#xd;&#xa;&#x9;&#x9;&#x9;c0,29.633,10.365,40,40,40c29.637,0,40-10.367,40-40C88,18.365,77.637,8,48,8z M48,87.023C18.842,87.023,9,77.176,9,48&#xd;&#xa;&#x9;&#x9;&#x9;S18.842,8.977,48,8.977S87,18.824,87,48S77.158,87.023,48,87.023z"/>
  </g>
 </g>
 <g display="none" id="ORANGE_BACKGROUNDS">
  <g display="inline" id="ORANGE_5">
   <linearGradient id="RED_x2F_ORANGE_5_2_" y1="8.0107" x1="47.9995" y2="87.9897" gradientUnits="userSpaceOnUse" x2="47.9995">
    <stop offset="0" style="stop-color:#FFDB62"/>
    <stop offset="0.1393" style="stop-color:#FAD15C"/>
    <stop offset="0.3741" style="stop-color:#EDB74D"/>
    <stop offset="0.4848" style="stop-color:#E6A844"/>
    <stop offset="1" style="stop-color:#C96B25"/>
   </linearGradient>
   <path fill="url(#RED_x2F_ORANGE_5_2_)" id="RED_x2F_ORANGE_5_1_" d="M8,47.988c0,29.634,10.365,40.001,40,40.001&#xd;&#xa;&#x9;&#x9;&#x9;c29.637,0,40-10.367,40-40.001c0-28.984-9.926-39.529-38.091-39.978h-3.817C17.928,8.459,8,19.004,8,47.988z"/>
   <linearGradient id="HIGHLIGHTS_RO5_1_" y1="8.2559" x1="47.9995" y2="87.5043" gradientUnits="userSpaceOnUse" x2="47.9995">
    <stop offset="0" style="stop-color:#FFFFFF"/>
    <stop offset="0.0958" style="stop-color:#FDF8F5"/>
    <stop offset="0.2579" style="stop-color:#F6E6DB"/>
    <stop offset="0.4666" style="stop-color:#EBC9AF"/>
    <stop offset="0.7136" style="stop-color:#DCA073"/>
    <stop offset="0.9904" style="stop-color:#CA6D28"/>
    <stop offset="1" style="stop-color:#C96B25"/>
   </linearGradient>
   <path stroke-opacity="0.25" fill="url(#HIGHLIGHTS_RO5_1_)" fill-opacity="0.25" id="HIGHLIGHTS_RO5" d="M48,8C18.365,8,8,18.365,8,48&#xd;&#xa;&#x9;&#x9;&#x9;c0,29.633,10.365,40,40,40c29.637,0,40-10.367,40-40C88,18.365,77.637,8,48,8z M48,87.023C18.842,87.023,9,77.176,9,48&#xd;&#xa;&#x9;&#x9;&#x9;S18.842,8.977,48,8.977S87,18.824,87,48S77.158,87.023,48,87.023z"/>
  </g>
  <g id="ORANGE_4">
   <linearGradient id="RED_x2F_ORANGE_4_1_" y1="8.0107" x1="47.9995" y2="87.9897" gradientUnits="userSpaceOnUse" x2="47.9995">
    <stop offset="0.0364" style="stop-color:#FBBF60"/>
    <stop offset="0.2109" style="stop-color:#F8B556"/>
    <stop offset="0.503" style="stop-color:#F19B3D"/>
    <stop offset="1" style="stop-color:#C76121"/>
   </linearGradient>
   <path fill="url(#RED_x2F_ORANGE_4_1_)" display="inline" id="RED_x2F_ORANGE_4_2_" d="M8,47.988c0,29.634,10.365,40.001,40,40.001&#xd;&#xa;&#x9;&#x9;&#x9;c29.637,0,40-10.367,40-40.001c0-28.984-9.926-39.529-38.091-39.978h-3.817C17.928,8.459,8,19.004,8,47.988z"/>
   <linearGradient id="HIGHLIGHTS_RO4_2_" y1="8.2559" x1="47.9995" y2="87.5043" gradientUnits="userSpaceOnUse" x2="47.9995">
    <stop offset="0.0364" style="stop-color:#FFFFFF"/>
    <stop offset="0.1274" style="stop-color:#FDF8F5"/>
    <stop offset="0.2815" style="stop-color:#F6E5DB"/>
    <stop offset="0.4799" style="stop-color:#EBC6AF"/>
    <stop offset="0.7147" style="stop-color:#DC9C73"/>
    <stop offset="0.9778" style="stop-color:#C96628"/>
    <stop offset="1" style="stop-color:#C76121"/>
   </linearGradient>
   <path stroke-opacity="0.25" fill="url(#HIGHLIGHTS_RO4_2_)" display="inline" fill-opacity="0.25" id="HIGHLIGHTS_RO4_1_" d="M48,8C18.365,8,8,18.365,8,48&#xd;&#xa;&#x9;&#x9;&#x9;c0,29.633,10.365,40,40,40c29.637,0,40-10.367,40-40C88,18.365,77.637,8,48,8z M48,87.023C18.842,87.023,9,77.176,9,48&#xd;&#xa;&#x9;&#x9;&#x9;S18.842,8.977,48,8.977S87,18.824,87,48S77.158,87.023,48,87.023z"/>
  </g>
  <g id="ORANGE_3">
   <linearGradient id="RED_x2F_ORANGE_3_2_" y1="8.0107" x1="47.9995" y2="87.9897" gradientUnits="userSpaceOnUse" x2="47.9995">
    <stop offset="0.0364" style="stop-color:#F6B85E"/>
    <stop offset="0.2008" style="stop-color:#F4AE5A"/>
    <stop offset="0.478" style="stop-color:#EE9451"/>
    <stop offset="0.5394" style="stop-color:#EC8D4E"/>
    <stop offset="0.8228" style="stop-color:#D46A3B"/>
    <stop offset="1" style="stop-color:#C95932"/>
   </linearGradient>
   <path fill="url(#RED_x2F_ORANGE_3_2_)" display="inline" id="RED_x2F_ORANGE_3_1_" d="M8,47.988c0,29.634,10.365,40.001,40,40.001&#xd;&#xa;&#x9;&#x9;&#x9;c29.637,0,40-10.367,40-40.001c0-28.984-9.926-39.529-38.091-39.978h-3.817C17.928,8.459,8,19.004,8,47.988z"/>
   <linearGradient id="HIGHLIGHTS_RO3_2_" y1="8.2559" x1="47.9995" y2="87.5043" gradientUnits="userSpaceOnUse" x2="47.9995">
    <stop offset="0.0364" style="stop-color:#FFFFFF"/>
    <stop offset="0.133" style="stop-color:#FCF7F5"/>
    <stop offset="0.2967" style="stop-color:#F5E2DB"/>
    <stop offset="0.5073" style="stop-color:#EABFAF"/>
    <stop offset="0.7537" style="stop-color:#DA8F74"/>
    <stop offset="1" style="stop-color:#C95932"/>
   </linearGradient>
   <path stroke-opacity="0.25" fill="url(#HIGHLIGHTS_RO3_2_)" display="inline" fill-opacity="0.25" id="HIGHLIGHTS_RO3_1_" d="M48,8C18.365,8,8,18.365,8,48&#xd;&#xa;&#x9;&#x9;&#x9;c0,29.633,10.365,40,40,40c29.637,0,40-10.367,40-40C88,18.365,77.637,8,48,8z M48,87.023C18.842,87.023,9,77.176,9,48&#xd;&#xa;&#x9;&#x9;&#x9;S18.842,8.977,48,8.977S87,18.824,87,48S77.158,87.023,48,87.023z"/>
  </g>
  <g id="ORANGE_2">
   <linearGradient id="RED_x2F_ORANGE_2_1_" y1="8.0107" x1="47.9995" y2="87.9897" gradientUnits="userSpaceOnUse" x2="47.9995">
    <stop offset="0.0364" style="stop-color:#FAA824"/>
    <stop offset="0.3742" style="stop-color:#EA8A20"/>
    <stop offset="1" style="stop-color:#C74A17"/>
   </linearGradient>
   <path fill="url(#RED_x2F_ORANGE_2_1_)" display="inline" id="RED_x2F_ORANGE_2_2_" d="M8,47.988c0,29.634,10.365,40.001,40,40.001&#xd;&#xa;&#x9;&#x9;&#x9;c29.637,0,40-10.367,40-40.001c0-28.984-9.926-39.529-38.091-39.978h-3.817C17.928,8.459,8,19.004,8,47.988z"/>
   <linearGradient id="HIGHLIGHTS_RO2_1_" y1="8.2559" x1="47.9995" y2="87.5043" gradientUnits="userSpaceOnUse" x2="47.9995">
    <stop offset="0.0364" style="stop-color:#FFFFFF"/>
    <stop offset="0.185" style="stop-color:#F8E8E1"/>
    <stop offset="0.5097" style="stop-color:#E5AC95"/>
    <stop offset="0.9833" style="stop-color:#C84D1B"/>
    <stop offset="1" style="stop-color:#C74A17"/>
   </linearGradient>
   <path stroke-opacity="0.25" fill="url(#HIGHLIGHTS_RO2_1_)" display="inline" fill-opacity="0.25" id="HIGHLIGHTS_RO2_2_" d="M48,8C18.365,8,8,18.365,8,48&#xd;&#xa;&#x9;&#x9;&#x9;c0,29.633,10.365,40,40,40c29.637,0,40-10.367,40-40C88,18.365,77.637,8,48,8z M48,87.023C18.842,87.023,9,77.176,9,48&#xd;&#xa;&#x9;&#x9;&#x9;S18.842,8.977,48,8.977S87,18.824,87,48S77.158,87.023,48,87.023z"/>
  </g>
  <g id="ORANGE_1">
   <linearGradient id="RED_x2F_ORANGE_1_2_" y1="8.0107" x1="47.9995" y2="87.9897" gradientUnits="userSpaceOnUse" x2="47.9995">
    <stop offset="0.0364" style="stop-color:#FF8A36"/>
    <stop offset="0.3489" style="stop-color:#EF7130"/>
    <stop offset="1" style="stop-color:#C73321"/>
   </linearGradient>
   <path fill="url(#RED_x2F_ORANGE_1_2_)" display="inline" id="RED_x2F_ORANGE_1_1_" d="M8,47.988c0,29.634,10.365,40.001,40,40.001&#xd;&#xa;&#x9;&#x9;&#x9;c29.637,0,40-10.367,40-40.001c0-28.984-9.926-39.529-38.091-39.978h-3.817C17.928,8.459,8,19.004,8,47.988z"/>
   <linearGradient id="HIGHLIGHTS_RO1_2_" y1="8.2559" x1="47.9995" y2="87.5043" gradientUnits="userSpaceOnUse" x2="47.9995">
    <stop offset="0.0364" style="stop-color:#FFFFFF"/>
    <stop offset="0.1274" style="stop-color:#FCF7F5"/>
    <stop offset="0.2815" style="stop-color:#F5E0DB"/>
    <stop offset="0.4799" style="stop-color:#EABBAF"/>
    <stop offset="0.7147" style="stop-color:#DA8873"/>
    <stop offset="0.9778" style="stop-color:#C64828"/>
    <stop offset="1" style="stop-color:#C44221"/>
   </linearGradient>
   <path stroke-opacity="0.25" fill="url(#HIGHLIGHTS_RO1_2_)" display="inline" fill-opacity="0.25" id="HIGHLIGHTS_RO1_1_" d="M48,8C18.365,8,8,18.365,8,48&#xd;&#xa;&#x9;&#x9;&#x9;c0,29.633,10.365,40,40,40c29.637,0,40-10.367,40-40C88,18.365,77.637,8,48,8z M48,87.023C18.842,87.023,9,77.176,9,48&#xd;&#xa;&#x9;&#x9;&#x9;S18.842,8.977,48,8.977S87,18.824,87,48S77.158,87.023,48,87.023z"/>
  </g>
 </g>
 <g id="GREEN_BACKGROUNDS">
  <g id="GREEN4">
   <linearGradient id="GREEN_4_1_" y1="8.0107" x1="47.9995" y2="87.9897" gradientUnits="userSpaceOnUse" x2="47.9995">
    <stop offset="0.0364" style="stop-color:#6BAB40"/>
    <stop offset="0.6061" style="stop-color:#537734"/>
    <stop offset="1" style="stop-color:#4F5C26"/>
   </linearGradient>
   <path fill="url(#GREEN_4_1_)" fill-rule="evenodd" id="GREEN_4_3_" d="M8,47.989c0,29.633,10.365,40,40,40&#xd;&#xa;&#x9;&#x9;&#x9;c29.637,0,40-10.367,40-40c0-28.985-9.926-39.53-38.091-39.979h-3.817C17.928,8.459,8,19.004,8,47.989z"/>
   <linearGradient id="HIGHLIGHT_GR4_1_" y1="8" x1="47.9995" y2="88.0005" gradientUnits="userSpaceOnUse" x2="47.9995">
    <stop offset="0.0364" style="stop-color:#FFFFFF"/>
    <stop offset="0.8255" style="stop-color:#6F7A4E"/>
    <stop offset="1" style="stop-color:#4F5C26"/>
   </linearGradient>
   <path stroke-opacity="0.25" fill="url(#HIGHLIGHT_GR4_1_)" fill-opacity="0.25" id="HIGHLIGHT_GR4" d="M48,8C18.365,8,8,18.365,8,48c0,29.633,10.365,40,40,40&#xd;&#xa;&#x9;&#x9;&#x9;c29.637,0,40-10.367,40-40C88,18.365,77.637,8,48,8z M48,87.023C18.842,87.023,9,77.176,9,48S18.842,8.977,48,8.977&#xd;&#xa;&#x9;&#x9;&#x9;S87,18.824,87,48S77.158,87.023,48,87.023z"/>
  </g>
  <g display="none" id="GREEN3">
   <linearGradient id="GREEN_3_1_" y1="8.0107" x1="47.9995" y2="87.9897" gradientUnits="userSpaceOnUse" x2="47.9995">
    <stop offset="0.0364" style="stop-color:#70B83B"/>
    <stop offset="0.2066" style="stop-color:#6AAE37"/>
    <stop offset="0.4945" style="stop-color:#5B942B"/>
    <stop offset="0.8626" style="stop-color:#426917"/>
    <stop offset="1" style="stop-color:#38570F"/>
   </linearGradient>
   <path fill="url(#GREEN_3_1_)" display="inline" fill-rule="evenodd" id="GREEN_3_2_" d="M8,47.989&#xd;&#xa;&#x9;&#x9;&#x9;c0,29.633,10.365,40,40,40c29.637,0,40-10.367,40-40c0-28.985-9.926-39.53-38.091-39.979h-3.817C17.928,8.459,8,19.004,8,47.989z"/>
   <linearGradient id="HIGHLIGHT_GR3_1_" y1="8" x1="47.9995" y2="88.0005" gradientUnits="userSpaceOnUse" x2="47.9995">
    <stop offset="0.0364" style="stop-color:#FFFFFF"/>
    <stop offset="0.1222" style="stop-color:#F7F8F5"/>
    <stop offset="0.2675" style="stop-color:#E1E5DB"/>
    <stop offset="0.4545" style="stop-color:#BDC7AF"/>
    <stop offset="0.6759" style="stop-color:#8B9D73"/>
    <stop offset="0.9238" style="stop-color:#4D6828"/>
    <stop offset="1" style="stop-color:#38570F"/>
   </linearGradient>
   <path stroke-opacity="0.25" fill="url(#HIGHLIGHT_GR3_1_)" display="inline" fill-opacity="0.25" id="HIGHLIGHT_GR3" d="M48,8C18.365,8,8,18.365,8,48&#xd;&#xa;&#x9;&#x9;&#x9;c0,29.633,10.365,40,40,40c29.637,0,40-10.367,40-40C88,18.365,77.637,8,48,8z M48,87.023C18.842,87.023,9,77.176,9,48&#xd;&#xa;&#x9;&#x9;&#x9;S18.842,8.977,48,8.977S87,18.824,87,48S77.158,87.023,48,87.023z"/>
  </g>
  <g display="none" id="GREEN2">
   <linearGradient id="GREEN_2_1_" y1="8.0107" x1="47.9995" y2="87.9897" gradientUnits="userSpaceOnUse" x2="47.9995">
    <stop offset="0.0364" style="stop-color:#75B561"/>
    <stop offset="0.223" style="stop-color:#6EAB5E"/>
    <stop offset="0.5376" style="stop-color:#5B9157"/>
    <stop offset="0.6667" style="stop-color:#528454"/>
    <stop offset="1" style="stop-color:#4B6145"/>
   </linearGradient>
   <path fill="url(#GREEN_2_1_)" display="inline" fill-rule="evenodd" id="GREEN_2_2_" d="M8,47.989&#xd;&#xa;&#x9;&#x9;&#x9;c0,29.633,10.365,40,40,40c29.637,0,40-10.367,40-40c0-28.985-9.926-39.53-38.091-39.979h-3.817C17.928,8.459,8,19.004,8,47.989z"/>
   <linearGradient id="HIGHLIGHT_GR2_1_" y1="8" x1="47.9995" y2="88.0005" gradientUnits="userSpaceOnUse" x2="47.9995">
    <stop offset="0.0364" style="stop-color:#FFFFFF"/>
    <stop offset="0.1404" style="stop-color:#F5F7F5"/>
    <stop offset="0.3165" style="stop-color:#DCE0DB"/>
    <stop offset="0.543" style="stop-color:#B2BBAF"/>
    <stop offset="0.8084" style="stop-color:#798974"/>
    <stop offset="1" style="stop-color:#4B6145"/>
   </linearGradient>
   <path stroke-opacity="0.25" fill="url(#HIGHLIGHT_GR2_1_)" display="inline" fill-opacity="0.25" id="HIGHLIGHT_GR2" d="M48,8C18.365,8,8,18.365,8,48&#xd;&#xa;&#x9;&#x9;&#x9;c0,29.633,10.365,40,40,40c29.637,0,40-10.367,40-40C88,18.365,77.637,8,48,8z M48,87.023C18.842,87.023,9,77.176,9,48&#xd;&#xa;&#x9;&#x9;&#x9;S18.842,8.977,48,8.977S87,18.824,87,48S77.158,87.023,48,87.023z"/>
  </g>
  <g id="GREEN1">
   <linearGradient id="GREEN_1_1_" y1="8.0107" x1="47.9995" y2="87.9897" gradientUnits="userSpaceOnUse" x2="47.9995">
    <stop offset="0.0364" style="stop-color:#9CD061"/>
    <stop offset="0.219" style="stop-color:#94C957"/>
    <stop offset="0.5269" style="stop-color:#7DB63D"/>
    <stop offset="0.6909" style="stop-color:#6FAA2C"/>
    <stop offset="1" style="stop-color:#4A8021"/>
   </linearGradient>
   <path fill="url(#GREEN_1_1_)" fill-rule="evenodd" id="GREEN_1_2_" d="M8,47.989c0,29.633,10.365,40,40,40&#xd;&#xa;&#x9;&#x9;&#x9;c29.637,0,40-10.367,40-40c0-28.985-9.926-39.53-38.091-39.979h-3.817C17.928,8.459,8,19.004,8,47.989z"/>
   <linearGradient id="HIGHLIGHT_GR1_1_" y1="8" x1="47.9995" y2="88.0005" gradientUnits="userSpaceOnUse" x2="47.9995">
    <stop offset="0.0364" style="stop-color:#FFFFFF"/>
    <stop offset="0.1274" style="stop-color:#F7F9F5"/>
    <stop offset="0.2815" style="stop-color:#E1EADB"/>
    <stop offset="0.4799" style="stop-color:#BED1AF"/>
    <stop offset="0.7147" style="stop-color:#8DAF73"/>
    <stop offset="0.9778" style="stop-color:#4F8428"/>
    <stop offset="1" style="stop-color:#4A8021"/>
   </linearGradient>
   <path stroke-opacity="0.25" fill="url(#HIGHLIGHT_GR1_1_)" fill-opacity="0.25" id="HIGHLIGHT_GR1" d="M48,8C18.365,8,8,18.365,8,48c0,29.633,10.365,40,40,40&#xd;&#xa;&#x9;&#x9;&#x9;c29.637,0,40-10.367,40-40C88,18.365,77.637,8,48,8z M48,87.023C18.842,87.023,9,77.176,9,48S18.842,8.977,48,8.977&#xd;&#xa;&#x9;&#x9;&#x9;S87,18.824,87,48S77.158,87.023,48,87.023z"/>
  </g>
 </g>
 <g display="none" id="BLUE_BACKGROUNDS">
  <g display="inline" id="BLUE_4_2_">
   <linearGradient id="BLUE_4_3_" y1="8.0107" x1="47.9995" y2="87.9897" gradientUnits="userSpaceOnUse" x2="47.9995">
    <stop offset="0.0364" style="stop-color:#4791D9"/>
    <stop offset="0.2496" style="stop-color:#4288CF"/>
    <stop offset="0.6102" style="stop-color:#366EB5"/>
    <stop offset="1" style="stop-color:#264C91"/>
   </linearGradient>
   <path fill="url(#BLUE_4_3_)" id="BLUE_4_1_" d="M8,47.989c0,29.633,10.365,40,40,40c29.637,0,40-10.367,40-40&#xd;&#xa;&#x9;&#x9;&#x9;c0-28.985-9.926-39.53-38.091-39.979h-3.817C17.928,8.459,8,19.004,8,47.989z"/>
   <linearGradient id="HIGHLIGHT_BLU4_1_" y1="8.2559" x1="47.9995" y2="87.5043" gradientUnits="userSpaceOnUse" x2="47.9995">
    <stop offset="0.0364" style="stop-color:#FFFFFF"/>
    <stop offset="0.129" style="stop-color:#F5F7FA"/>
    <stop offset="0.2858" style="stop-color:#DBE1ED"/>
    <stop offset="0.4876" style="stop-color:#AFBDD7"/>
    <stop offset="0.7265" style="stop-color:#738CB8"/>
    <stop offset="0.9942" style="stop-color:#284D92"/>
    <stop offset="1" style="stop-color:#264C91"/>
   </linearGradient>
   <path stroke-opacity="0.25" fill="url(#HIGHLIGHT_BLU4_1_)" fill-opacity="0.25" id="HIGHLIGHT_BLU4" d="M48,8C18.365,8,8,18.365,8,48&#xd;&#xa;&#x9;&#x9;&#x9;c0,29.633,10.365,40,40,40c29.637,0,40-10.367,40-40C88,18.365,77.637,8,48,8z M48,87.023C18.842,87.023,9,77.176,9,48&#xd;&#xa;&#x9;&#x9;&#x9;S18.842,8.977,48,8.977S87,18.824,87,48S77.158,87.023,48,87.023z"/>
  </g>
  <g id="BLUE_3_2_">
   <linearGradient id="BLUE_3_3_" y1="8.0107" x1="47.9995" y2="87.9897" gradientUnits="userSpaceOnUse" x2="47.9995">
    <stop offset="0.0364" style="stop-color:#66A2D3"/>
    <stop offset="0.2002" style="stop-color:#5C9BCE"/>
    <stop offset="0.4773" style="stop-color:#4289C1"/>
    <stop offset="0.8316" style="stop-color:#176CAB"/>
    <stop offset="1" style="stop-color:#005DA0"/>
   </linearGradient>
   <path fill="url(#BLUE_3_3_)" display="inline" id="BLUE_3_1_" d="M8,47.989c0,29.633,10.365,40,40,40c29.637,0,40-10.367,40-40&#xd;&#xa;&#x9;&#x9;&#x9;c0-28.985-9.926-39.53-38.091-39.979h-3.817C17.928,8.459,8,19.004,8,47.989z"/>
   <linearGradient id="HIGHLIGHT_BLU3_1_" y1="8.2559" x1="47.9995" y2="87.5043" gradientUnits="userSpaceOnUse" x2="47.9995">
    <stop offset="0.0364" style="stop-color:#FFFFFF"/>
    <stop offset="0.1184" style="stop-color:#F5F9FC"/>
    <stop offset="0.2572" style="stop-color:#DBE9F5"/>
    <stop offset="0.4359" style="stop-color:#AFCFEA"/>
    <stop offset="0.6475" style="stop-color:#73ACDA"/>
    <stop offset="0.8842" style="stop-color:#287FC6"/>
    <stop offset="1" style="stop-color:#0067BC"/>
   </linearGradient>
   <path stroke-opacity="0.25" fill="url(#HIGHLIGHT_BLU3_1_)" display="inline" fill-opacity="0.25" id="HIGHLIGHT_BLU3" d="M48,8C18.365,8,8,18.365,8,48&#xd;&#xa;&#x9;&#x9;&#x9;c0,29.633,10.365,40,40,40c29.637,0,40-10.367,40-40C88,18.365,77.637,8,48,8z M48,87.023C18.842,87.023,9,77.176,9,48&#xd;&#xa;&#x9;&#x9;&#x9;S18.842,8.977,48,8.977S87,18.824,87,48S77.158,87.023,48,87.023z"/>
  </g>
  <g id="BLUE_2_2_">
   <linearGradient id="BLUE_2_3_" y1="8.0107" x1="47.9995" y2="87.9897" gradientUnits="userSpaceOnUse" x2="47.9995">
    <stop offset="0.0364" style="stop-color:#63B3E0"/>
    <stop offset="0.204" style="stop-color:#59ACDA"/>
    <stop offset="0.4875" style="stop-color:#3F99C9"/>
    <stop offset="0.8499" style="stop-color:#147BAE"/>
    <stop offset="1" style="stop-color:#006DA2"/>
   </linearGradient>
   <path fill="url(#BLUE_2_3_)" display="inline" id="BLUE_2_1_" d="M8,47.989c0,29.633,10.365,40,40,40c29.637,0,40-10.367,40-40&#xd;&#xa;&#x9;&#x9;&#x9;c0-28.985-9.926-39.53-38.091-39.979h-3.817C17.928,8.459,8,19.004,8,47.989z"/>
   <linearGradient id="HIGHLIGHT_BLU2_1_" y1="8.2559" x1="47.9995" y2="87.5043" gradientUnits="userSpaceOnUse" x2="47.9995">
    <stop offset="0.0364" style="stop-color:#FFFFFF"/>
    <stop offset="0.1233" style="stop-color:#F5F9FB"/>
    <stop offset="0.2704" style="stop-color:#DBE7F0"/>
    <stop offset="0.4598" style="stop-color:#AFCBDD"/>
    <stop offset="0.6841" style="stop-color:#73A4C4"/>
    <stop offset="0.9352" style="stop-color:#2873A4"/>
    <stop offset="1" style="stop-color:#13659B"/>
   </linearGradient>
   <path stroke-opacity="0.25" fill="url(#HIGHLIGHT_BLU2_1_)" display="inline" fill-opacity="0.25" id="HIGHLIGHT_BLU2" d="M48,8C18.365,8,8,18.365,8,48&#xd;&#xa;&#x9;&#x9;&#x9;c0,29.633,10.365,40,40,40c29.637,0,40-10.367,40-40C88,18.365,77.637,8,48,8z M48,87.023C18.842,87.023,9,77.176,9,48&#xd;&#xa;&#x9;&#x9;&#x9;S18.842,8.977,48,8.977S87,18.824,87,48S77.158,87.023,48,87.023z"/>
  </g>
  <g id="BLUE_1_1_">
   <linearGradient id="BLUE_1_3_" y1="8.0107" x1="47.9995" y2="87.9897" gradientUnits="userSpaceOnUse" x2="47.9995">
    <stop offset="0.0364" style="stop-color:#6BCFDB"/>
    <stop offset="0.1944" style="stop-color:#61C7D4"/>
    <stop offset="0.4617" style="stop-color:#47B0C3"/>
    <stop offset="0.8033" style="stop-color:#1C8CA6"/>
    <stop offset="1" style="stop-color:#007594"/>
   </linearGradient>
   <path fill="url(#BLUE_1_3_)" display="inline" id="BLUE_1_2_" d="M8,47.989c0,29.633,10.365,40,40,40c29.637,0,40-10.367,40-40&#xd;&#xa;&#x9;&#x9;&#x9;c0-28.985-9.926-39.53-38.091-39.979h-3.817C17.928,8.459,8,19.004,8,47.989z"/>
   <linearGradient id="HIGHLIGHT_BLU1_1_" y1="8.2559" x1="47.9995" y2="87.5043" gradientUnits="userSpaceOnUse" x2="47.9995">
    <stop offset="0.0364" style="stop-color:#FFFDF2"/>
    <stop offset="0.1064" style="stop-color:#F5F8F0"/>
    <stop offset="0.2248" style="stop-color:#DBEBE9"/>
    <stop offset="0.3771" style="stop-color:#AFD5DF"/>
    <stop offset="0.5394" style="stop-color:#7ABAD2"/>
    <stop offset="1" style="stop-color:#00879A"/>
   </linearGradient>
   <path stroke-opacity="0.25" fill="url(#HIGHLIGHT_BLU1_1_)" display="inline" fill-opacity="0.25" id="HIGHLIGHT_BLU1" d="M48,8C18.365,8,8,18.365,8,48&#xd;&#xa;&#x9;&#x9;&#x9;c0,29.633,10.365,40,40,40c29.637,0,40-10.367,40-40C88,18.365,77.637,8,48,8z M48,87.023C18.842,87.023,9,77.176,9,48&#xd;&#xa;&#x9;&#x9;&#x9;S18.842,8.977,48,8.977S87,18.824,87,48S77.158,87.023,48,87.023z"/>
  </g>
 </g>
 <g display="none" id="VIOLET_x2F_PINK_BACKGROUNDS">
  <g display="inline" id="PINK_2_2_">
   <linearGradient id="PINK_2_3_" y1="8.0107" x1="47.9995" y2="87.9897" gradientUnits="userSpaceOnUse" x2="47.9995">
    <stop offset="0.0364" style="stop-color:#FF61C7"/>
    <stop offset="0.1942" style="stop-color:#F759C1"/>
    <stop offset="0.4381" style="stop-color:#E145B1"/>
    <stop offset="0.7357" style="stop-color:#BE2396"/>
    <stop offset="1" style="stop-color:#99007A"/>
   </linearGradient>
   <path fill="url(#PINK_2_3_)" id="PINK_2_1_" d="M8,47.988c0,29.634,10.365,40.001,40,40.001c29.637,0,40-10.367,40-40.001&#xd;&#xa;&#x9;&#x9;&#x9;c0-28.984-9.926-39.529-38.091-39.978h-3.817C17.928,8.459,8,19.004,8,47.988z"/>
   <linearGradient id="HIGHLIGHT_PI2_2_" y1="8.2554" x1="47.9995" y2="87.5043" gradientUnits="userSpaceOnUse" x2="47.9995">
    <stop offset="0.0364" style="stop-color:#FFFFFF"/>
    <stop offset="0.119" style="stop-color:#FCF7FB"/>
    <stop offset="0.2468" style="stop-color:#F3E1F0"/>
    <stop offset="0.4038" style="stop-color:#E5BEDD"/>
    <stop offset="0.5839" style="stop-color:#D18CC3"/>
    <stop offset="0.7837" style="stop-color:#B84DA2"/>
    <stop offset="0.9971" style="stop-color:#99017B"/>
    <stop offset="1" style="stop-color:#99007A"/>
   </linearGradient>
   <path stroke-opacity="0.25" fill="url(#HIGHLIGHT_PI2_2_)" fill-opacity="0.25" id="HIGHLIGHT_PI2_1_" d="M48,8C18.365,8,8,18.365,8,48&#xd;&#xa;&#x9;&#x9;&#x9;c0,29.632,10.365,40,40,40c29.637,0,40-10.367,40-40C88,18.365,77.637,8,48,8z M48,87.023C18.842,87.023,9,77.176,9,48&#xd;&#xa;&#x9;&#x9;&#x9;C9,18.824,18.842,8.976,48,8.976S87,18.824,87,48C87,77.176,77.158,87.023,48,87.023z"/>
  </g>
  <g id="PINK_1_2_">
   <linearGradient id="PINK_1_3_" y1="8.0107" x1="47.9995" y2="87.9897" gradientUnits="userSpaceOnUse" x2="47.9995">
    <stop offset="0.0364" style="stop-color:#E64DD4"/>
    <stop offset="0.2159" style="stop-color:#DE46CE"/>
    <stop offset="0.4932" style="stop-color:#C832BC"/>
    <stop offset="0.8319" style="stop-color:#A5129F"/>
    <stop offset="1" style="stop-color:#91008F"/>
   </linearGradient>
   <path fill="url(#PINK_1_3_)" display="inline" id="PINK_1_1_" d="M8,47.989c0,29.633,10.365,40,40,40c29.637,0,40-10.367,40-40&#xd;&#xa;&#x9;&#x9;&#x9;c0-28.985-9.926-39.53-38.091-39.979h-3.817C17.928,8.459,8,19.004,8,47.989z"/>
   <linearGradient id="HIGHLIGHT_PI2_3_" y1="8.2554" x1="47.9995" y2="87.5043" gradientUnits="userSpaceOnUse" x2="47.9995">
    <stop offset="0.0364" style="stop-color:#FFFFFF"/>
    <stop offset="0.119" style="stop-color:#FCF7FC"/>
    <stop offset="0.2468" style="stop-color:#F2E1F2"/>
    <stop offset="0.4038" style="stop-color:#E3BEE2"/>
    <stop offset="0.5839" style="stop-color:#CE8CCD"/>
    <stop offset="0.7837" style="stop-color:#B24DB1"/>
    <stop offset="0.9971" style="stop-color:#91018F"/>
    <stop offset="1" style="stop-color:#91008F"/>
   </linearGradient>
   <path stroke-opacity="0.25" fill="url(#HIGHLIGHT_PI2_3_)" display="inline" fill-opacity="0.25" id="HIGHLIGHT_PI2" d="M48,8C18.365,8,8,18.365,8,48&#xd;&#xa;&#x9;&#x9;&#x9;c0,29.632,10.365,40,40,40c29.637,0,40-10.367,40-40C88,18.365,77.637,8,48,8z M48,87.023C18.842,87.023,9,77.176,9,48&#xd;&#xa;&#x9;&#x9;&#x9;C9,18.824,18.842,8.976,48,8.976S87,18.824,87,48C87,77.176,77.158,87.023,48,87.023z"/>
  </g>
  <g id="VIOLET_2_2_">
   <linearGradient id="VIOLET_2_3_" y1="8.0107" x1="47.9995" y2="90.757" gradientUnits="userSpaceOnUse" x2="47.9995">
    <stop offset="0.0364" style="stop-color:#BA66E0"/>
    <stop offset="0.2174" style="stop-color:#B260D8"/>
    <stop offset="0.497" style="stop-color:#9D51C2"/>
    <stop offset="0.8385" style="stop-color:#7C379F"/>
    <stop offset="1" style="stop-color:#69298C"/>
   </linearGradient>
   <path fill="url(#VIOLET_2_3_)" display="inline" id="VIOLET_2_1_" d="M8,47.989c0,29.633,10.365,40,40,40&#xd;&#xa;&#x9;&#x9;&#x9;c29.637,0,40-10.367,40-40c0-28.985-9.926-39.53-38.091-39.979h-3.817C17.928,8.459,8,19.004,8,47.989z"/>
   <linearGradient id="HIGHLIGHT_VIO2_1_" y1="8.2554" x1="47.9995" y2="87.5043" gradientUnits="userSpaceOnUse" x2="47.9995">
    <stop offset="0.0364" style="stop-color:#FFFFFF"/>
    <stop offset="0.1299" style="stop-color:#F9F7FB"/>
    <stop offset="0.2745" style="stop-color:#EAE1EF"/>
    <stop offset="0.452" style="stop-color:#D1BEDC"/>
    <stop offset="0.6558" style="stop-color:#AF8CC1"/>
    <stop offset="0.8786" style="stop-color:#834EA0"/>
    <stop offset="1" style="stop-color:#69298C"/>
   </linearGradient>
   <path stroke-opacity="0.25" fill="url(#HIGHLIGHT_VIO2_1_)" display="inline" fill-opacity="0.25" id="HIGHLIGHT_VIO2" d="M48,8C18.365,8,8,18.365,8,48&#xd;&#xa;&#x9;&#x9;&#x9;c0,29.632,10.365,40,40,40c29.637,0,40-10.367,40-40C88,18.365,77.637,8,48,8z M48,87.023C18.842,87.023,9,77.176,9,48&#xd;&#xa;&#x9;&#x9;&#x9;C9,18.824,18.842,8.976,48,8.976S87,18.824,87,48C87,77.176,77.158,87.023,48,87.023z"/>
  </g>
  <g id="VIOLET_1_2_">
   <linearGradient id="VIOLET_1_3_" y1="9.7622" x1="47.9995" y2="89.7412" gradientUnits="userSpaceOnUse" x2="47.9995">
    <stop offset="0.0364" style="stop-color:#A14DDB"/>
    <stop offset="0.2205" style="stop-color:#9949D3"/>
    <stop offset="0.505" style="stop-color:#833CBE"/>
    <stop offset="0.8523" style="stop-color:#60299D"/>
    <stop offset="1" style="stop-color:#4F1F8C"/>
   </linearGradient>
   <path fill="url(#VIOLET_1_3_)" display="inline" id="VIOLET_1_1_" d="M8,47.989c0,29.633,10.365,40,40,40&#xd;&#xa;&#x9;&#x9;&#x9;c29.637,0,40-10.367,40-40c0-28.985-9.926-39.53-38.091-39.979h-3.817C17.928,8.459,8,19.004,8,47.989z"/>
   <linearGradient id="HIGHLIGHT_VIO1_1_" y1="8.2554" x1="47.9995" y2="87.5043" gradientUnits="userSpaceOnUse" x2="47.9995">
    <stop offset="0.0364" style="stop-color:#FFFFFF"/>
    <stop offset="1" style="stop-color:#4A1F8C"/>
   </linearGradient>
   <path stroke-opacity="0.25" fill="url(#HIGHLIGHT_VIO1_1_)" display="inline" fill-opacity="0.25" id="HIGHLIGHT_VIO1" d="M48,8C18.365,8,8,18.365,8,48&#xd;&#xa;&#x9;&#x9;&#x9;c0,29.632,10.365,40,40,40c29.637,0,40-10.367,40-40C88,18.365,77.637,8,48,8z M48,87.023C18.842,87.023,9,77.176,9,48&#xd;&#xa;&#x9;&#x9;&#x9;C9,18.824,18.842,8.977,48,8.977S87,18.824,87,48C87,77.176,77.158,87.023,48,87.023z"/>
  </g>
 </g>
 <g id="PLACE_YOUR_GRAPHIC_HERE">
  <g>
   <g id="DO_NOT_EDIT_-_BOUNDING_BOX_1_">
    <rect width="48" x="24.023" y="25.001" fill="none" height="47.999" id="BOUNDING_BOX_1_"/>
   </g>
   <g id="PLACE_YOUR_GRAPHIC_HERE_1_">
    <path stroke-opacity="0.3" fill-opacity="0.3" d="M60.508,30.129l-1.074-2.723c-0.176-0.441-0.701-0.805-1.17-0.805h-20.48&#xd;&#xa;&#x9;&#x9;&#x9;&#x9;c-0.469,0-0.993,0.363-1.167,0.805l-1.074,2.723c-0.176,0.443-0.318,1.195-0.318,1.672V63c0,0.477,0.143,1.229,0.318,1.672&#xd;&#xa;&#x9;&#x9;&#x9;&#x9;l1.072,2.723c0.176,0.443,0.7,0.805,1.169,0.805h20.48c0.469,0,0.994-0.361,1.168-0.805l1.072-2.723&#xd;&#xa;&#x9;&#x9;&#x9;&#x9;c0.18-0.443,0.32-1.195,0.32-1.672V31.801C60.824,31.325,60.684,30.573,60.508,30.129z M51.545,65h-7.04&#xd;&#xa;&#x9;&#x9;&#x9;&#x9;c-0.711,0-1.281-0.537-1.281-1.201c0-0.662,0.57-1.199,1.281-1.199h7.04c0.703,0,1.279,0.537,1.279,1.199&#xd;&#xa;&#x9;&#x9;&#x9;&#x9;C52.824,64.463,52.252,65,51.545,65z M57.623,60.199h-19.2V31.401h19.2V60.199z"/>
    <path stroke-opacity="0.15" fill-opacity="0.15" d="M37.784,71.4c-1.124,0-2.239-0.766-2.656-1.816l-1.073-2.727&#xd;&#xa;&#x9;&#x9;&#x9;&#x9;c-0.25-0.629-0.431-1.582-0.431-2.258V33.401c0-0.676,0.181-1.627,0.431-2.259l1.074-2.725c0.408-1.049,1.527-1.815,2.655-1.815&#xd;&#xa;&#x9;&#x9;&#x9;&#x9;h20.48c1.123,0,2.24,0.765,2.656,1.815l1.076,2.725c0.25,0.627,0.428,1.578,0.428,2.259V64.6c0,0.688-0.182,1.641-0.434,2.268&#xd;&#xa;&#x9;&#x9;&#x9;&#x9;l-1.066,2.713c-0.418,1.055-1.535,1.82-2.66,1.82H37.784z"/>
    <path stroke-opacity="0.15" fill-opacity="0.15" d="M60.508,31.729l-1.074-2.723c-0.176-0.441-0.701-0.805-1.17-0.805h-20.48&#xd;&#xa;&#x9;&#x9;&#x9;&#x9;c-0.469,0-0.993,0.363-1.167,0.805l-1.074,2.723c-0.176,0.443-0.318,1.195-0.318,1.672V64.6c0,0.477,0.143,1.229,0.318,1.672&#xd;&#xa;&#x9;&#x9;&#x9;&#x9;l1.072,2.723c0.176,0.443,0.7,0.805,1.169,0.805h20.48c0.469,0,0.994-0.361,1.168-0.805l1.072-2.723&#xd;&#xa;&#x9;&#x9;&#x9;&#x9;c0.18-0.443,0.32-1.195,0.32-1.672V33.401C60.824,32.925,60.684,32.172,60.508,31.729z M51.545,66.6h-7.04&#xd;&#xa;&#x9;&#x9;&#x9;&#x9;c-0.711,0-1.281-0.537-1.281-1.199c0-0.664,0.57-1.201,1.281-1.201h7.04c0.703,0,1.279,0.537,1.279,1.201&#xd;&#xa;&#x9;&#x9;&#x9;&#x9;C52.824,66.062,52.252,66.6,51.545,66.6z M57.623,61.799h-19.2V33.001h19.2V61.799z"/>
    <path fill="#FFFFFF" d="M60.508,31.729l-1.074-2.723c-0.176-0.441-0.701-0.805-1.17-0.805h-20.48&#xd;&#xa;&#x9;&#x9;&#x9;&#x9;c-0.469,0-0.993,0.363-1.167,0.805l-1.074,2.723c-0.176,0.443-0.318,1.195-0.318,1.672V64.6c0,0.477,0.143,1.229,0.318,1.672&#xd;&#xa;&#x9;&#x9;&#x9;&#x9;l1.072,2.723c0.176,0.443,0.7,0.805,1.169,0.805h20.48c0.469,0,0.994-0.361,1.168-0.805l1.072-2.723&#xd;&#xa;&#x9;&#x9;&#x9;&#x9;c0.18-0.443,0.32-1.195,0.32-1.672V33.401C60.824,32.925,60.684,32.172,60.508,31.729z M51.545,66.6h-7.04&#xd;&#xa;&#x9;&#x9;&#x9;&#x9;c-0.711,0-1.281-0.537-1.281-1.199c0-0.664,0.57-1.201,1.281-1.201h7.04c0.703,0,1.279,0.537,1.279,1.201&#xd;&#xa;&#x9;&#x9;&#x9;&#x9;C52.824,66.062,52.252,66.6,51.545,66.6z M57.623,61.799h-19.2V33.001h19.2V61.799z"/>
   </g>
  </g>
 </g>
 <g id="DO_NOT_EDIT_-_FOCAL_ZONE_GUIDES_ONLY"/>
</svg>
