<?xml version="1.0" encoding="utf-8"?>
<!-- Generator: Adobe Illustrator 16.0.0, SVG Export Plug-In . SVG Version: 6.00 Build 0)  -->
<!DOCTYPE svg PUBLIC "-//W3C//DTD SVG 1.1//EN" "http://www.w3.org/Graphics/SVG/1.1/DTD/svg11.dtd">
<svg version="1.1" xmlns="http://www.w3.org/2000/svg" xmlns:xlink="http://www.w3.org/1999/xlink" x="0px" y="0px" width="80px"
	 height="80px" viewBox="0 0 80 80" enable-background="new 0 0 80 80" xml:space="preserve">
<g id="DO_NOT_EDIT_-_BOUNDING_BOX">
	<rect id="BOUNDING_BOX" fill="none" width="80" height="80"/>
</g>
<g id="WHITE_x2F_GREY_BACKGROUNDS" display="none">
	<path id="GREY4_2_" display="inline" fill="#515151" d="M79,40c0,28.893-10.105,39-39,39S1,68.893,1,40C1,11.106,11.105,1,40,1
		S79,11.106,79,40z"/>
	<path id="GREY3_2_" fill="#7C7C7C" d="M79,40c0,28.893-10.105,39-39,39S1,68.893,1,40C1,11.106,11.105,1,40,1S79,11.106,79,40z"/>
	<path id="GREY2_2_" fill="#9E9E9E" d="M79,40c0,28.893-10.105,39-39,39S1,68.893,1,40C1,11.106,11.105,1,40,1S79,11.106,79,40z"/>
	<path id="GREY1_2_" fill="#A3A8AB" d="M79,40c0,28.893-10.105,39-39,39S1,68.893,1,40C1,11.106,11.105,1,40,1S79,11.106,79,40z"/>
	<linearGradient id="WHITE_1_" gradientUnits="userSpaceOnUse" x1="39.9995" y1="-5.0801" x2="39.9995" y2="75.0701">
		<stop  offset="0" style="stop-color:#FFFFFF"/>
		<stop  offset="0.2886" style="stop-color:#FCFCFC"/>
		<stop  offset="0.5203" style="stop-color:#F2F2F2"/>
		<stop  offset="0.7322" style="stop-color:#E1E1E1"/>
		<stop  offset="0.9313" style="stop-color:#C9C9C9"/>
		<stop  offset="1" style="stop-color:#BFBFBF"/>
	</linearGradient>
	<path id="WHITE_2_" fill="url(#WHITE_1_)" d="M79,40c0,28.893-10.105,39-39,39S1,68.893,1,40C1,11.106,11.105,1,40,1
		S79,11.106,79,40z"/>
</g>
<g id="ORANGE_x2F_YELLOW_BACKGROUNDS" display="none">
	<path id="ORANGE3_1_" display="inline" fill="#E8631F" d="M79,40c0,28.893-10.105,39-39,39S1,68.893,1,40C1,11.106,11.105,1,40,1
		S79,11.106,79,40z"/>
	<path id="ORANGE2_1_" fill="#F78500" d="M79,40c0,28.893-10.105,39-39,39S1,68.893,1,40C1,11.106,11.105,1,40,1S79,11.106,79,40z"
		/>
	<path id="ORANGE1_1_" fill="#E69600" d="M79,40c0,28.893-10.105,39-39,39S1,68.893,1,40C1,11.106,11.105,1,40,1S79,11.106,79,40z"
		/>
	<path id="YELLOW1_1_" fill="#F7ED76" d="M79,40c0,28.893-10.105,39-39,39S1,68.893,1,40C1,11.106,11.105,1,40,1S79,11.106,79,40z"
		/>
</g>
<g id="VIOLET_x2F_PINK_BACKGROUNDS" display="none">
	<path id="PINK2_2_" display="inline" fill="#DE11A6" d="M79,40c0,28.893-10.105,39-39,39S1,68.893,1,40C1,11.106,11.105,1,40,1
		S79,11.106,79,40z"/>
	<path id="PINK1_2_" fill="#C20FC1" d="M79,40c0,28.893-10.105,39-39,39S1,68.893,1,40C1,11.106,11.105,1,40,1S79,11.106,79,40z"/>
	<path id="VIOLET2_2_" fill="#9501C5" d="M79,40c0,28.893-10.105,39-39,39S1,68.893,1,40C1,11.106,11.105,1,40,1S79,11.106,79,40z"
		/>
	<path id="VIOLET1_2_" fill="#6401BA" d="M79,40c0,28.893-10.105,39-39,39S1,68.893,1,40C1,11.106,11.105,1,40,1S79,11.106,79,40z"
		/>
</g>
<g id="BLUE_BACKGROUNDS" display="none">
	<path id="BLUE4_2_" display="inline" fill="#124191" d="M79,40c0,28.893-10.105,39-39,39S1,68.893,1,40C1,11.106,11.105,1,40,1
		S79,11.106,79,40z"/>
	<path id="BLUE3_1_" fill="#2D65C2" d="M79,40c0,28.893-10.105,39-39,39S1,68.893,1,40C1,11.106,11.105,1,40,1S79,11.106,79,40z"/>
	<path id="BLUE2_2_" fill="#0088AF" d="M79,40c0,28.893-10.105,39-39,39S1,68.893,1,40C1,11.106,11.105,1,40,1S79,11.106,79,40z"/>
	<path id="BLUE1_2_" fill="#047DC9" d="M79,40c0,28.893-10.105,39-39,39S1,68.893,1,40C1,11.106,11.105,1,40,1S79,11.106,79,40z"/>
</g>
<g id="GREEN_BACKGROUNDS">
	<path id="GREEN3_1_" fill="#247800" d="M79,40c0,28.893-10.105,39-39,39S1,68.893,1,40C1,11.106,11.105,1,40,1S79,11.106,79,40z"/>
	<path id="GREEN2_1_" display="none" fill="#498800" d="M79,40c0,28.893-10.105,39-39,39S1,68.893,1,40C1,11.106,11.105,1,40,1
		S79,11.106,79,40z"/>
	<path id="GREEN1_2_" fill="#6EB600" d="M79,40c0,28.893-10.105,39-39,39S1,68.893,1,40C1,11.106,11.105,1,40,1S79,11.106,79,40z"/>
</g>
<g id="DO_NOT_EDIT_-_HIGHLIGHT">
	<defs>
		<filter id="Adobe_OpacityMaskFilter" filterUnits="userSpaceOnUse" x="1.023" y="1" width="77.953" height="78">
			<feFlood  style="flood-color:white;flood-opacity:1" result="back"/>
			<feBlend  in="SourceGraphic" in2="back" mode="normal"/>
		</filter>
	</defs>
	<mask maskUnits="userSpaceOnUse" x="1.023" y="1" width="77.953" height="78" id="OVERLAY_2_">
		<g filter="url(#Adobe_OpacityMaskFilter)">
			<defs>
				<filter id="Adobe_OpacityMaskFilter_1_" filterUnits="userSpaceOnUse" x="1.023" y="1" width="77.953" height="78">
					<feFlood  style="flood-color:white;flood-opacity:1" result="back"/>
					<feBlend  in="SourceGraphic" in2="back" mode="normal"/>
				</filter>
			</defs>
			<mask maskUnits="userSpaceOnUse" x="1.023" y="1" width="77.953" height="78" id="OVERLAY_2_">
				<g filter="url(#Adobe_OpacityMaskFilter_1_)">
				</g>
			</mask>
			<linearGradient id="OVERLAY_3_" gradientUnits="userSpaceOnUse" x1="39.9995" y1="5.1816" x2="39.9995" y2="58.8019">
				<stop  offset="0" style="stop-color:#FFFFFF"/>
				<stop  offset="1" style="stop-color:#D6D6D6"/>
			</linearGradient>
			<path id="OVERLAY_1_" mask="url(#OVERLAY_2_)" fill="url(#OVERLAY_3_)" d="M78.977,40c0,28.893-10.1,39-38.977,39
				S1.023,68.893,1.023,40c0-28.894,10.1-39,38.977-39S78.977,11.106,78.977,40z"/>
		</g>
	</mask>
	<linearGradient id="OVERLAY_4_" gradientUnits="userSpaceOnUse" x1="39.9995" y1="5.1816" x2="39.9995" y2="58.8019">
		<stop  offset="0" style="stop-color:#FFFFFF"/>
		<stop  offset="1" style="stop-color:#000000"/>
	</linearGradient>
	<path id="OVERLAY" opacity="0.5" fill="url(#OVERLAY_4_)" d="M78.977,40c0,28.893-10.1,39-38.977,39S1.023,68.893,1.023,40
		c0-28.894,10.1-39,38.977-39S78.977,11.106,78.977,40z"/>
	<defs>
		<filter id="Adobe_OpacityMaskFilter_2_" filterUnits="userSpaceOnUse" x="1" y="1" width="78" height="78">
			<feFlood  style="flood-color:white;flood-opacity:1" result="back"/>
			<feBlend  in="SourceGraphic" in2="back" mode="normal"/>
		</filter>
	</defs>
	<mask maskUnits="userSpaceOnUse" x="1" y="1" width="78" height="78" id="HIGHLIGHT_2_">
		<g filter="url(#Adobe_OpacityMaskFilter_2_)">
			<defs>
				<filter id="Adobe_OpacityMaskFilter_3_" filterUnits="userSpaceOnUse" x="1" y="1" width="78" height="78">
					<feFlood  style="flood-color:white;flood-opacity:1" result="back"/>
					<feBlend  in="SourceGraphic" in2="back" mode="normal"/>
				</filter>
			</defs>
			<mask maskUnits="userSpaceOnUse" x="1" y="1" width="78" height="78" id="HIGHLIGHT_2_">
				<g filter="url(#Adobe_OpacityMaskFilter_3_)">
				</g>
			</mask>
			<linearGradient id="HIGHLIGHT_3_" gradientUnits="userSpaceOnUse" x1="39.9995" y1="1.2471" x2="39.9995" y2="78.5111">
				<stop  offset="0" style="stop-color:#FFFFFF"/>
				<stop  offset="1" style="stop-color:#000000"/>
			</linearGradient>
			<path id="HIGHLIGHT_1_" mask="url(#HIGHLIGHT_2_)" fill="url(#HIGHLIGHT_3_)" d="M39.999,1C11.105,1,1,11.106,1,40
				c0,28.893,10.105,39,38.999,39C68.896,79,79,68.893,79,40C79,11.106,68.896,1,39.999,1z M39.999,78.025
				C11.57,78.025,1.976,68.43,1.976,40c0-28.429,9.595-38.024,38.023-38.024c28.43,0,38.024,9.596,38.024,38.024
				C78.023,68.43,68.429,78.025,39.999,78.025z"/>
		</g>
	</mask>
	<linearGradient id="HIGHLIGHT_4_" gradientUnits="userSpaceOnUse" x1="39.9995" y1="1.2471" x2="39.9995" y2="78.5111">
		<stop  offset="0" style="stop-color:#FFFFFF"/>
		<stop  offset="1" style="stop-color:#FFFFFF"/>
	</linearGradient>
	<path id="HIGHLIGHT" opacity="0.25" fill="url(#HIGHLIGHT_4_)" d="M39.999,1C11.105,1,1,11.106,1,40c0,28.893,10.105,39,38.999,39
		C68.896,79,79,68.893,79,40C79,11.106,68.896,1,39.999,1z M39.999,78.025C11.57,78.025,1.976,68.43,1.976,40
		c0-28.429,9.595-38.024,38.023-38.024c28.43,0,38.024,9.596,38.024,38.024C78.023,68.43,68.429,78.025,39.999,78.025z"/>
</g>
<g id="PLACE_YOUR_GLYPH_HERE">
	<g>
		<g id="DO_NOT_EDIT_-_BOUNDING_BOX_1_">
			<rect id="BOUNDING_BOX_1_" x="16" y="16.001" fill="none" width="48" height="47.999"/>
		</g>
		<g id="PLACE_YOUR_GRAPHIC_HERE">
			<path opacity="0.3" enable-background="new    " d="M52.484,21.129l-1.074-2.723c-0.176-0.441-0.701-0.805-1.17-0.805H29.761
				c-0.469,0-0.994,0.363-1.167,0.805l-1.075,2.723c-0.175,0.443-0.318,1.195-0.318,1.672V54c0,0.477,0.144,1.229,0.318,1.672
				l1.072,2.723c0.176,0.443,0.701,0.805,1.169,0.805H50.24c0.469,0,0.994-0.361,1.168-0.805l1.072-2.723
				c0.18-0.443,0.32-1.195,0.32-1.672V22.801C52.801,22.324,52.66,21.572,52.484,21.129z M43.521,56h-7.04
				c-0.71,0-1.281-0.537-1.281-1.201c0-0.662,0.571-1.199,1.281-1.199h7.04c0.703,0,1.279,0.537,1.279,1.199
				C44.801,55.463,44.229,56,43.521,56z M49.6,51.199H30.4V22.401H49.6V51.199z"/>
			<path opacity="0.15" enable-background="new    " d="M29.761,62.4c-1.124,0-2.24-0.766-2.656-1.816l-1.074-2.727
				c-0.25-0.629-0.43-1.582-0.43-2.258V24.401c0-0.676,0.18-1.627,0.43-2.259l1.075-2.725c0.408-1.049,1.526-1.815,2.655-1.815
				H50.24c1.123,0,2.24,0.765,2.656,1.815l1.076,2.725c0.25,0.627,0.428,1.578,0.428,2.259V55.6c0,0.688-0.182,1.641-0.434,2.268
				L52.9,60.58c-0.418,1.055-1.535,1.82-2.66,1.82H29.761z"/>
			<path opacity="0.15" enable-background="new    " d="M52.484,22.729l-1.074-2.723c-0.176-0.441-0.701-0.805-1.17-0.805H29.761
				c-0.469,0-0.994,0.363-1.167,0.805l-1.075,2.723c-0.175,0.443-0.318,1.195-0.318,1.672V55.6c0,0.477,0.144,1.229,0.318,1.672
				l1.072,2.723c0.176,0.443,0.701,0.805,1.169,0.805H50.24c0.469,0,0.994-0.361,1.168-0.805l1.072-2.723
				c0.18-0.443,0.32-1.195,0.32-1.672V24.401C52.801,23.924,52.66,23.172,52.484,22.729z M43.521,57.6h-7.04
				c-0.71,0-1.281-0.537-1.281-1.199c0-0.664,0.571-1.201,1.281-1.201h7.04c0.703,0,1.279,0.537,1.279,1.201
				C44.801,57.062,44.229,57.6,43.521,57.6z M49.6,52.799H30.4V24.001H49.6V52.799z"/>
			<path fill="#FFFFFF" d="M52.484,22.729l-1.074-2.723c-0.176-0.441-0.701-0.805-1.17-0.805H29.761
				c-0.469,0-0.994,0.363-1.167,0.805l-1.075,2.723c-0.175,0.443-0.318,1.195-0.318,1.672V55.6c0,0.477,0.144,1.229,0.318,1.672
				l1.072,2.723c0.176,0.443,0.701,0.805,1.169,0.805H50.24c0.469,0,0.994-0.361,1.168-0.805l1.072-2.723
				c0.18-0.443,0.32-1.195,0.32-1.672V24.401C52.801,23.924,52.66,23.172,52.484,22.729z M43.521,57.6h-7.04
				c-0.71,0-1.281-0.537-1.281-1.199c0-0.664,0.571-1.201,1.281-1.201h7.04c0.703,0,1.279,0.537,1.279,1.201
				C44.801,57.062,44.229,57.6,43.521,57.6z M49.6,52.799H30.4V24.001H49.6V52.799z"/>
		</g>
	</g>
</g>
<g id="DO_NOT_EDIT_-_FOCAL_ZONE_GUIDES">
</g>
</svg>
