<?xml version="1.0" encoding="utf-8"?>
<!-- Generator: Adobe Illustrator 16.0.0, SVG Export Plug-In . SVG Version: 6.00 Build 0)  -->
<!DOCTYPE svg PUBLIC "-//W3C//DTD SVG 1.1//EN" "http://www.w3.org/Graphics/SVG/1.1/DTD/svg11.dtd">
<svg version="1.1" xmlns="http://www.w3.org/2000/svg" xmlns:xlink="http://www.w3.org/1999/xlink" x="0px" y="0px" width="96px"
	 height="96px" viewBox="0 0 96 96" enable-background="new 0 0 96 96" xml:space="preserve">
<g id="DO_NOT_EDIT_-_BOUNDING_BOX">
	<rect id="BOUNDING_BOX" fill="none" width="96" height="96"/>
</g>
<g id="DO_NOT_EDIT_-_SHADOW">
	<path id="SHADOW" opacity="0.4" d="M88.023,49c0,29.633-10.364,40-40,40c-29.635,0-40-10.367-40-40c0-29.634,10.366-40,40-40
		C77.659,9,88.023,19.365,88.023,49z"/>
</g>
<g id="PLACE_YOUR_GRAPHIC_HERE">
	<g>
		<g id="DO_NOT_EDIT_-_BOUNDING_BOX_1_">
			<rect id="BOUNDING_BOX_1_" x="24.023" y="25.001" fill="none" width="48" height="47.999"/>
		</g>
		<g id="PLACE_YOUR_GRAPHIC_HERE_1_">
			<path opacity="0.3" enable-background="new    " d="M60.508,30.129l-1.074-2.723c-0.176-0.441-0.701-0.805-1.17-0.805h-20.48
				c-0.469,0-0.993,0.363-1.167,0.805l-1.074,2.723c-0.176,0.443-0.318,1.195-0.318,1.672V63c0,0.477,0.143,1.229,0.318,1.672
				l1.072,2.723c0.176,0.443,0.7,0.805,1.169,0.805h20.48c0.469,0,0.994-0.361,1.168-0.805l1.072-2.723
				c0.18-0.443,0.32-1.195,0.32-1.672V31.801C60.824,31.325,60.684,30.573,60.508,30.129z M51.545,65h-7.04
				c-0.711,0-1.281-0.537-1.281-1.201c0-0.662,0.57-1.199,1.281-1.199h7.04c0.703,0,1.279,0.537,1.279,1.199
				C52.824,64.463,52.252,65,51.545,65z M57.623,60.199h-19.2V31.401h19.2V60.199z"/>
			<path opacity="0.15" enable-background="new    " d="M37.784,71.4c-1.124,0-2.239-0.766-2.656-1.816l-1.073-2.727
				c-0.25-0.629-0.431-1.582-0.431-2.258V33.401c0-0.676,0.181-1.627,0.431-2.259l1.074-2.725c0.408-1.049,1.527-1.815,2.655-1.815
				h20.48c1.123,0,2.24,0.765,2.656,1.815l1.076,2.725c0.25,0.627,0.428,1.578,0.428,2.259V64.6c0,0.688-0.182,1.641-0.434,2.268
				l-1.066,2.713c-0.418,1.055-1.535,1.82-2.66,1.82H37.784z"/>
			<path opacity="0.15" enable-background="new    " d="M60.508,31.729l-1.074-2.723c-0.176-0.441-0.701-0.805-1.17-0.805h-20.48
				c-0.469,0-0.993,0.363-1.167,0.805l-1.074,2.723c-0.176,0.443-0.318,1.195-0.318,1.672V64.6c0,0.477,0.143,1.229,0.318,1.672
				l1.072,2.723c0.176,0.443,0.7,0.805,1.169,0.805h20.48c0.469,0,0.994-0.361,1.168-0.805l1.072-2.723
				c0.18-0.443,0.32-1.195,0.32-1.672V33.401C60.824,32.925,60.684,32.172,60.508,31.729z M51.545,66.6h-7.04
				c-0.711,0-1.281-0.537-1.281-1.199c0-0.664,0.57-1.201,1.281-1.201h7.04c0.703,0,1.279,0.537,1.279,1.201
				C52.824,66.062,52.252,66.6,51.545,66.6z M57.623,61.799h-19.2V33.001h19.2V61.799z"/>
			<path fill="#FFFFFF" d="M60.508,31.729l-1.074-2.723c-0.176-0.441-0.701-0.805-1.17-0.805h-20.48
				c-0.469,0-0.993,0.363-1.167,0.805l-1.074,2.723c-0.176,0.443-0.318,1.195-0.318,1.672V64.6c0,0.477,0.143,1.229,0.318,1.672
				l1.072,2.723c0.176,0.443,0.7,0.805,1.169,0.805h20.48c0.469,0,0.994-0.361,1.168-0.805l1.072-2.723
				c0.18-0.443,0.32-1.195,0.32-1.672V33.401C60.824,32.925,60.684,32.172,60.508,31.729z M51.545,66.6h-7.04
				c-0.711,0-1.281-0.537-1.281-1.199c0-0.664,0.57-1.201,1.281-1.201h7.04c0.703,0,1.279,0.537,1.279,1.201
				C52.824,66.062,52.252,66.6,51.545,66.6z M57.623,61.799h-19.2V33.001h19.2V61.799z"/>
		</g>
	</g>
</g>
<g id="CUT_AWAY_SOURROUND_SHAPE">
	<path id="CUT_AWAY_SHAPE_1_" fill="#FFFFFF" d="M0,0v96h96V0H0z M48,87.979c-29.635,0-40-10.367-40-40c0-29.634,10.365-40,40-40
		c29.637,0,40,10.365,40,40C88,77.611,77.637,87.979,48,87.979z"/>
</g>
<g id="DO_NOT_EDIT_-_FOCAL_ZONE_GUIDES_ONLY">
</g>
<g id="_DO_NOT_EDIT_-_HIGHLIGHTS">
	<linearGradient id="HIGHLIGHT_RIM_1_" gradientUnits="userSpaceOnUse" x1="47.9995" y1="0" x2="47.9995" y2="144.6673">
		<stop  offset="0" style="stop-color:#FFFFFF"/>
		<stop  offset="1" style="stop-color:#000000"/>
	</linearGradient>
	<path id="HIGHLIGHT_RIM" fill="url(#HIGHLIGHT_RIM_1_)" fill-opacity="0.25" d="M48,7.979c-29.635,0-40,10.365-40,40
		c0,29.633,10.365,40,40,40c29.637,0,40-10.367,40-40C88,18.344,77.637,7.979,48,7.979z M48,87.002c-29.159,0-39-9.848-39-39.024
		C9,18.803,18.841,8.956,48,8.956c29.158,0,39,9.847,39,39.022C87,77.154,77.158,87.002,48,87.002z"/>
	<g id="DARK_BEVEL">
		<path id="SQUIRCLE" display="none" fill="#FFFFFF" fill-opacity="0.05" d="M48,87.979c-29.635,0-40-10.367-40-40
			c0-29.634,10.365-40,40-40c29.637,0,40,10.365,40,40C88,77.611,77.637,87.979,48,87.979z"/>
		<path opacity="0.02" d="M9.478,64.25C13.244,81.519,24.624,87.979,48,87.979c23.378,0,34.756-6.46,38.522-23.729H9.478z"/>
		<path opacity="0.02" d="M10.242,67.25C14.659,82.271,26.031,87.979,48,87.979c21.971,0,33.342-5.708,37.758-20.729H10.242z"/>
		<path opacity="0.02" d="M11.258,70.25C16.284,83.041,27.555,87.979,48,87.979c20.446,0,31.717-4.938,36.742-17.729H11.258z"/>
		<path opacity="0.02" d="M12.636,73.25C18.211,83.815,29.241,87.979,48,87.979c18.76,0,29.79-4.163,35.365-14.729H12.636z"/>
		<path opacity="0.02" d="M13.797,75.25C19.685,84.348,30.47,87.979,48,87.979c17.531,0,28.316-3.631,34.203-12.729H13.797z"/>
		<path opacity="0.02" d="M15.255,77.25C21.396,84.878,31.821,87.979,48,87.979c16.18,0,26.604-3.101,32.745-10.729H15.255z"/>
		<path fill-opacity="0.02" d="M17.059,79.25c6.305,6.177,16.254,8.729,30.941,8.729c14.688,0,24.638-2.552,30.942-8.729H17.059z"/>
	</g>
	<g id="LIGHT_BEVEL">
		<path opacity="0.01" fill="#FFFFFF" d="M48,8.979c-29.635,0-40,10.365-40,40c0,2.888,0.102,5.588,0.307,8.119l0.219,0.02h78.958
			l0.21-0.019c0.205-2.531,0.307-5.23,0.307-8.12C88,19.344,77.637,8.979,48,8.979z"/>
		<path opacity="0.01" fill="#FFFFFF" d="M48,7.979c-29.635,0-40,10.365-40,40c0,1.051,0.017,2.073,0.043,3.077l0.701,0.062H87.26
			l0.697-0.062C87.983,50.051,88,49.029,88,47.978C88,18.344,77.637,7.979,48,7.979z"/>
		<path opacity="0.01" fill="#FFFFFF" d="M8.965,46.116h78.072l0.941-0.084C87.521,17.897,76.975,7.979,48,7.979
			c-28.973,0-39.521,9.919-39.978,38.054L8.965,46.116z"/>
		<path opacity="0.01" fill="#FFFFFF" d="M9.186,41.116h77.628l0.961-0.086C86.147,16.713,75.187,7.979,48,7.979
			c-27.185,0-38.147,8.735-39.775,33.053L9.186,41.116z"/>
		<path opacity="0.01" fill="#FFFFFF" d="M9.186,37.116h77.628c0.201,0,0.397-0.036,0.594-0.066
			C84.854,15.753,73.648,7.979,48,7.979c-25.646,0-36.854,7.774-39.408,29.072C8.789,37.08,8.984,37.116,9.186,37.116z"/>
		<path opacity="0.01" fill="#FFFFFF" d="M48,7.979c-24.004,0-35.363,6.805-38.814,25.138h77.628
			C83.363,14.783,72.006,7.979,48,7.979z"/>
		<path opacity="0.01" fill="#FFFFFF" d="M84.074,29.67l1.6-0.376c0.083-0.02,0.158-0.058,0.239-0.084
			C81.605,13.805,70.22,7.979,48,7.979c-22.218,0-33.604,5.827-37.913,21.231c0.081,0.026,0.156,0.064,0.239,0.084l1.599,0.376
			c0.226,0.053,0.456,0.08,0.688,0.08h70.773C83.618,29.75,83.849,29.723,84.074,29.67z"/>
		<path opacity="0.01" fill="#FFFFFF" d="M12.613,26.75h70.773l1.6-0.376C80.091,13.093,68.794,7.979,48,7.979
			c-20.792,0-32.09,5.115-36.986,18.395L12.613,26.75z"/>
		<path opacity="0.01" fill="#FFFFFF" d="M12.613,24.75h70.773c0.305,0,0.595-0.081,0.86-0.208C78.999,12.621,67.81,7.979,48,7.979
			c-19.808,0-30.998,4.643-36.247,16.563C12.019,24.669,12.309,24.75,12.613,24.75z"/>
		<path opacity="0.01" fill="#FFFFFF" d="M83.387,22.75C77.82,12.153,66.786,7.979,48,7.979c-18.785,0-29.819,4.174-35.387,14.771
			H83.387z"/>
	</g>
</g>
</svg>
