<?xml version="1.0" encoding="utf-8"?>
<!-- Generator: Adobe Illustrator 16.0.0, SVG Export Plug-In . SVG Version: 6.00 Build 0)  -->
<!DOCTYPE svg PUBLIC "-//W3C//DTD SVG 1.1//EN" "http://www.w3.org/Graphics/SVG/1.1/DTD/svg11.dtd">
<svg version="1.1" xmlns="http://www.w3.org/2000/svg" xmlns:xlink="http://www.w3.org/1999/xlink" x="0px" y="0px" width="96px"
	 height="96px" viewBox="0 0 96 96" enable-background="new 0 0 96 96" xml:space="preserve">
<g id="DO_NOT_EDIT_-_BOUNDING_BOX">
	<rect id="BOUNDING_BOX" fill="none" width="96" height="96"/>
</g>
<g id="DO_NOT_EDIT_-_SHADOW">
	<path id="SHADOW" opacity="0.4" d="M88.023,49c0,29.633-10.364,40-40,40c-29.635,0-40-10.367-40-40c0-29.634,10.366-40,40-40
		C77.659,9,88.023,19.365,88.023,49z"/>
</g>
<g id="PLACE_YOUR_GRAPHIC_HERE">
</g>
<g id="CUT_AWAY_SOURROUND_SHAPE">
	<path id="CUT_AWAY_SHAPE_1_" fill="#FFFFFF" d="M0,0v96h96V0H0z M48,87.979c-29.635,0-40-10.367-40-40c0-29.634,10.365-40,40-40
		c29.637,0,40,10.365,40,40C88,77.611,77.637,87.979,48,87.979z"/>
</g>
<g id="DO_NOT_EDIT_-_FOCAL_ZONE_GUIDES_ONLY" display="none">
</g>
<g id="_DO_NOT_EDIT_-_HIGHLIGHTS">
	<linearGradient id="HIGHLIGHT_RIM_1_" gradientUnits="userSpaceOnUse" x1="47.9995" y1="0" x2="47.9995" y2="144.6673">
		<stop  offset="0" style="stop-color:#FFFFFF"/>
		<stop  offset="1" style="stop-color:#000000"/>
	</linearGradient>
	<path id="HIGHLIGHT_RIM" fill="url(#HIGHLIGHT_RIM_1_)" fill-opacity="0.25" d="M48,7.979c-29.635,0-40,10.365-40,40
		c0,29.633,10.365,40,40,40c29.637,0,40-10.367,40-40C88,18.344,77.637,7.979,48,7.979z M48,87.002c-29.159,0-39-9.848-39-39.024
		C9,18.803,18.841,8.956,48,8.956c29.158,0,39,9.847,39,39.022C87,77.154,77.158,87.002,48,87.002z"/>
	<g id="DARK_BEVEL">
		<path id="SQUIRCLE" display="none" fill="#FFFFFF" fill-opacity="0.05" d="M48,87.979c-29.635,0-40-10.367-40-40
			c0-29.634,10.365-40,40-40c29.637,0,40,10.365,40,40C88,77.611,77.637,87.979,48,87.979z"/>
		<path opacity="0.02" d="M9.478,64.25C13.244,81.519,24.624,87.979,48,87.979c23.378,0,34.756-6.46,38.522-23.729H9.478z"/>
		<path opacity="0.02" d="M10.242,67.25C14.659,82.271,26.031,87.979,48,87.979c21.971,0,33.342-5.708,37.758-20.729H10.242z"/>
		<path opacity="0.02" d="M11.258,70.25C16.284,83.041,27.555,87.979,48,87.979c20.446,0,31.717-4.938,36.742-17.729H11.258z"/>
		<path opacity="0.02" d="M12.636,73.25C18.211,83.815,29.241,87.979,48,87.979c18.76,0,29.79-4.163,35.365-14.729H12.636z"/>
		<path opacity="0.02" d="M13.797,75.25C19.685,84.348,30.47,87.979,48,87.979c17.531,0,28.316-3.631,34.203-12.729H13.797z"/>
		<path opacity="0.02" d="M15.255,77.25C21.396,84.878,31.821,87.979,48,87.979c16.18,0,26.604-3.101,32.745-10.729H15.255z"/>
		<path fill-opacity="0.02" d="M17.059,79.25c6.305,6.177,16.254,8.729,30.941,8.729c14.688,0,24.638-2.552,30.942-8.729H17.059z"/>
	</g>
	<g id="LIGHT_BEVEL">
		<path opacity="0.01" fill="#FFFFFF" d="M48,8.979c-29.635,0-40,10.365-40,40c0,2.888,0.102,5.588,0.307,8.119l0.219,0.02h78.958
			l0.21-0.019c0.205-2.531,0.307-5.23,0.307-8.12C88,19.344,77.637,8.979,48,8.979z"/>
		<path opacity="0.01" fill="#FFFFFF" d="M48,7.979c-29.635,0-40,10.365-40,40c0,1.051,0.017,2.073,0.043,3.077l0.701,0.062H87.26
			l0.697-0.062C87.983,50.051,88,49.029,88,47.978C88,18.344,77.637,7.979,48,7.979z"/>
		<path opacity="0.01" fill="#FFFFFF" d="M8.965,46.116h78.072l0.941-0.084C87.521,17.897,76.975,7.979,48,7.979
			c-28.973,0-39.521,9.919-39.978,38.054L8.965,46.116z"/>
		<path opacity="0.01" fill="#FFFFFF" d="M9.186,41.116h77.628l0.961-0.086C86.147,16.713,75.187,7.979,48,7.979
			c-27.185,0-38.147,8.735-39.775,33.053L9.186,41.116z"/>
		<path opacity="0.01" fill="#FFFFFF" d="M9.186,37.116h77.628c0.201,0,0.397-0.036,0.594-0.066
			C84.854,15.753,73.648,7.979,48,7.979c-25.646,0-36.854,7.774-39.408,29.072C8.789,37.08,8.984,37.116,9.186,37.116z"/>
		<path opacity="0.01" fill="#FFFFFF" d="M48,7.979c-24.004,0-35.363,6.805-38.814,25.138h77.628
			C83.363,14.783,72.006,7.979,48,7.979z"/>
		<path opacity="0.01" fill="#FFFFFF" d="M84.074,29.67l1.6-0.376c0.083-0.02,0.158-0.058,0.239-0.084
			C81.605,13.805,70.22,7.979,48,7.979c-22.218,0-33.604,5.827-37.913,21.231c0.081,0.026,0.156,0.064,0.239,0.084l1.599,0.376
			c0.226,0.053,0.456,0.08,0.688,0.08h70.773C83.618,29.75,83.849,29.723,84.074,29.67z"/>
		<path opacity="0.01" fill="#FFFFFF" d="M12.613,26.75h70.773l1.6-0.376C80.091,13.093,68.794,7.979,48,7.979
			c-20.792,0-32.09,5.115-36.986,18.395L12.613,26.75z"/>
		<path opacity="0.01" fill="#FFFFFF" d="M12.613,24.75h70.773c0.305,0,0.595-0.081,0.86-0.208C78.999,12.621,67.81,7.979,48,7.979
			c-19.808,0-30.998,4.643-36.247,16.563C12.019,24.669,12.309,24.75,12.613,24.75z"/>
		<path opacity="0.01" fill="#FFFFFF" d="M83.387,22.75C77.82,12.153,66.786,7.979,48,7.979c-18.785,0-29.819,4.174-35.387,14.771
			H83.387z"/>
	</g>
</g>
<g id="Icon">
	
		<linearGradient id="SVGID_1_" gradientUnits="userSpaceOnUse" x1="177.1943" y1="1092.0195" x2="177.1943" y2="1044.0195" gradientTransform="matrix(1 0 0 1 -128.9805 -1020.0195)">
		<stop  offset="0" style="stop-color:#D0CBC5"/>
		<stop  offset="0.5031" style="stop-color:#FAFCEF"/>
		<stop  offset="0.9693" style="stop-color:#FFFFFF"/>
	</linearGradient>
	<path fill="url(#SVGID_1_)" d="M62.844,28.071l-1.258-3.143C61.382,24.418,60.765,24,60.215,24h-24
		c-0.55,0-1.167,0.418-1.371,0.929l-1.258,3.143c-0.204,0.51-0.371,1.378-0.371,1.928v36c0,0.551,0.167,1.418,0.371,1.93
		l1.258,3.144C35.048,71.582,35.665,72,36.215,72h24c0.55,0,1.167-0.418,1.371-0.928l1.258-3.143c0.204-0.513,0.371-1.38,0.371-1.93
		V30C63.215,29.45,63.048,28.582,62.844,28.071z M54.715,69h-13c-0.828,0-1.5-0.672-1.5-1.5s0.672-1.5,1.5-1.5h13
		c0.828,0,1.5,0.672,1.5,1.5S55.543,69,54.715,69z M60.215,63h-24V30h24V63z"/>
</g>
</svg>
